#!OML:ASF H:\Terrain\Patient Classification 1\Animal1\Tuesday\Animal1.ASF
:FULLY-SPECIFIED
:DEGREES
1655
root 15.5364 14.5435 -21.6004 16.3069 -20.7096 -4.17061
lowerback 2.54573 -0.227944 0.787195
upperback -8.85492 -0.0220056 3.12469
thorax -10.8712 0.0617514 2.92433
lowerneck -13.4769 2.50558 -1.4426
upperneck 18.9961 3.19982 2.6283
head 8.0306 1.66546 1.45425
rclavicle -6.08157e-014 -3.18055e-015
rhumerus -2.91281 63.5211 -16.3617
rradius 141.029
rwrist -45.3471
rhand -30.0303 41.7142
rfingers 7.12502
rthumb -3.34674 11.7607
lclavicle -6.08157e-014 -3.18055e-015
lhumerus -35.8149 -50.411 50.9701
lradius 135.42
lwrist -4.38667
lhand -1.72862 32.9516
lfingers 7.12502
lthumb 23.9337 61.48
rfemur -30.1657 9.05036 30.4955
rtibia 56.6898
rfoot -29.0176 -36.0724
rtoes 6.84178
lfemur -55.6407 -7.14603 1.04937
ltibia 58.3044
lfoot -19.0402 8.41297
ltoes -13.8307
1656
root 15.5286 14.5249 -21.6705 16.146 -20.8853 -4.2226
lowerback 2.80588 -0.238653 0.80634
upperback -8.77813 -0.0260879 3.15842
thorax -10.9422 0.0606192 2.95265
lowerneck -13.5213 2.58353 -1.44384
upperneck 18.9118 3.29563 2.69315
head 8.00693 1.71798 1.48537
rclavicle 1.01753e-014 -9.54166e-015
rhumerus 2.96159 66.3594 -8.57441
rradius 140.938
rwrist -47.9389
rhand -30.1131 40.1644
rfingers 7.12502
rthumb -3.42671 10.2122
lclavicle 1.01753e-014 -9.54166e-015
lhumerus -35.3051 -54.6454 48.5087
lradius 135.626
lwrist -4.00217
lhand 0.0413261 32.6487
lfingers 7.12502
lthumb 25.63 60.9438
rfemur -30.419 9.27796 30.6491
rtibia 57.0007
rfoot -28.9616 -36.0252
rtoes 7.14308
lfemur -55.6084 -6.98598 1.23094
ltibia 58.286
lfoot -19.0193 8.45714
ltoes -14.4562
1657
root 15.5212 14.5113 -21.7303 16.1885 -20.9319 -4.62569
lowerback 2.92554 -0.207754 1.19367
upperback -8.70764 0.0604787 3.26884
thorax -10.9399 0.074921 2.84382
lowerneck -13.4412 2.63955 -1.12383
upperneck 18.6083 3.3831 2.31244
head 7.90361 1.74588 1.30943
rclavicle -3.43276e-014 3.18055e-015
rhumerus 8.50957 68.8441 -0.756495
rradius 141.077
rwrist -51.1766
rhand -30.3619 39.2359
rfingers 7.12502
rthumb -3.66691 9.28766
lclavicle -3.43276e-014 3.18055e-015
lhumerus -34.6747 -58.6001 46.1673
lradius 135.898
lwrist -3.08126
lhand 1.46591 32.4626
lfingers 7.12502
lthumb 26.9937 60.554
rfemur -30.6405 9.3994 31.1632
rtibia 57.2513
rfoot -28.9428 -35.9448
rtoes 7.4697
lfemur -55.6878 -6.73151 1.75441
ltibia 58.2998
lfoot -19.0065 8.4957
ltoes -14.5812
1658
root 15.5166 14.5003 -21.7895 16.2733 -20.8749 -5.04322
lowerback 3.02093 -0.252257 1.57455
upperback -8.68327 0.0533884 3.47639
thorax -10.9729 0.0493629 2.8565
lowerneck -13.4188 2.72062 -0.83411
upperneck 18.5134 3.53079 1.82911
head 7.88116 1.78916 1.11602
rclavicle 6.26917e-014 1.19271e-014
rhumerus 15.4849 70.7228 8.09807
rradius 140.982
rwrist -54.4296
rhand -31.2127 38.5446
rfingers 7.12502
rthumb -4.48848 8.61215
lclavicle 6.26917e-014 1.19271e-014
lhumerus -34.934 -62.2909 44.8111
lradius 136.171
lwrist -1.36748
lhand 2.44656 32.7329
lfingers 7.12502
lthumb 27.9316 60.6754
rfemur -30.9095 9.40744 31.7062
rtibia 57.4945
rfoot -28.6102 -36.085
rtoes 7.29246
lfemur -55.8571 -6.59146 2.32268
ltibia 58.2935
lfoot -18.9132 8.48908
ltoes -14.7285
1659
root 15.5118 14.4879 -21.8509 16.1428 -20.9072 -5.07206
lowerback 3.26179 -0.337088 1.54516
upperback -8.70047 -0.0435323 3.6001
thorax -11.137 0.0124153 3.02472
lowerneck -13.2135 2.79527 -0.632397
upperneck 18.3634 3.66824 1.43807
head 7.80523 1.83087 0.962554
rclavicle -2.13942e-014 -3.37934e-014
rhumerus 22.309 71.8925 16.4033
rradius 140.719
rwrist -57.3568
rhand -31.2226 38.3708
rfingers 7.12502
rthumb -4.49806 8.43857
lclavicle -2.13942e-014 -3.37934e-014
lhumerus -35.7262 -65.4251 44.0045
lradius 136.439
lwrist 1.44516
lhand 3.44795 33.2067
lfingers 7.12502
lthumb 28.8885 60.9896
rfemur -31.1602 9.44618 31.8554
rtibia 57.7852
rfoot -28.6151 -36.048
rtoes 7.59789
lfemur -55.8933 -6.61389 2.51284
ltibia 58.2091
lfoot -18.8705 8.21306
ltoes -14.5386
